<svg width="100" height="60" viewBox="0 0 100 46" fill="none" xmlns="http://www.w3.org/2000/svg"><path d="M38.922 45.532c-4.406 0-8.078-3.672-8.078-8.078 0-4.407 3.672-8.079 8.078-8.079 4.407 0 8.079 3.672 8.079 8.078 0 4.407-3.672 8.079-8.079 8.079zm0-13.22c-2.79 0-5.14 2.35-5.14 5.142 0 2.79 2.35 5.14 5.14 5.14 2.791 0 5.14-2.35 5.14-5.14 0-2.791-2.349-5.141-5.14-5.141z" fill="#000"/><path d="M38.922 39.657c-1.175 0-2.203-1.028-2.203-2.203 0-1.176 1.028-2.204 2.203-2.204 1.176 0 2.203 1.028 2.203 2.203 0 1.176-1.027 2.204-2.203 2.204zm0-2.938c-.44 0-.734.294-.734.734 0 .441.293.735.734.735s.735-.294.735-.735c0-.44-.294-.734-.735-.734zm54.932 1.469h-4.26V35.25h4.26c.881-.146 2.791-3.378 3.084-4.7.588-2.35-.146-4.112-.734-4.993-.881-1.322-1.91-1.91-2.496-1.91-1.763-.293-4.553-.881-7.344-1.322-3.526-.735-8.079-1.469-8.666-1.616v-2.937c.44 0 1.91.293 9.106 1.615 2.79.588 5.581 1.028 7.343 1.322 1.616.294 3.231 1.616 4.407 3.231 1.028 1.47 1.91 3.966 1.175 7.344-.147 1.029-2.644 6.904-5.875 6.904z" fill="#000"/><path d="M32.313 38.188h-4.407c-4.112 0-7.343-3.231-7.343-7.344V24.97c0-4.113 3.23-7.344 7.344-7.344h6.462l2.938-6.021c1.762-3.526 5.434-5.729 9.4-5.729h18.947c3.526 0 6.757 1.762 8.666 4.847l4.7 7.638-2.496 1.615-4.7-7.637c-1.323-2.203-3.673-3.525-6.17-3.525H46.707c-2.937 0-5.434 1.615-6.756 4.113l-3.82 7.637h-8.224c-2.497 0-4.406 1.91-4.406 4.406v5.875c0 2.497 1.91 4.406 4.406 4.406h4.406v2.938zm50.672 7.344c-4.406 0-8.078-3.672-8.078-8.078 0-4.407 3.672-8.079 8.078-8.079 4.406 0 8.078 3.672 8.078 8.078 0 4.407-3.672 8.079-8.078 8.079zm0-13.22c-2.79 0-5.14 2.35-5.14 5.142 0 2.79 2.35 5.14 5.14 5.14 2.791 0 5.14-2.35 5.14-5.14 0-2.791-2.349-5.141-5.14-5.141z" fill="#000"/><path d="M82.985 39.657c-1.175 0-2.203-1.028-2.203-2.203 0-1.176 1.028-2.204 2.203-2.204 1.176 0 2.203 1.028 2.203 2.203 0 1.176-1.027 2.204-2.203 2.204zm0-2.938c-.44 0-.734.294-.734.734 0 .441.293.735.734.735s.735-.294.735-.735c0-.44-.294-.734-.735-.734zm-5.14-16.156H57.282V10.28H71.97v2.938H60.22v4.406h17.625v2.938z" fill="#000"/><path d="M58.75 20.563H45.386c-1.175 0-2.056-.588-2.644-1.616-.588-1.027-.588-2.203 0-3.084l2.203-3.672c.734-1.175 2.056-1.91 3.379-1.91H58.75v2.938H48.323c-.294 0-.735.147-.882.44l-2.203 3.673.147.147h13.366v3.084zM45.532 35.25h29.375v2.938H45.532V35.25zm-23.5-11.75h4.406v2.938h-4.406V23.5zm70.5 2.938h5.875v2.937h-5.875v-2.937zm-39.656-1.469h2.937v2.938h-2.938v-2.938zm2.937 2.938h2.938v2.937h-2.938v-2.937zm2.937-2.938h2.938v2.938h-2.937v-2.938zm5.876 0h2.937v2.938h-2.937v-2.938zm-2.938 2.938h2.938v2.937h-2.938v-2.937zm4.406-20.563h-2.937V4.406c0-.734-.734-1.468-1.762-1.468H53.17c-.881 0-1.762.587-1.762 1.468v2.938H48.47V4.406c0-2.35 2.057-4.406 4.7-4.406h8.225c2.644 0 4.7 1.91 4.7 4.406v2.938zM7.344 26.438h8.812v2.937H7.344v-2.937zM0 19.094h13.219v2.938H0v-2.938zm7.344-7.344h20.563v2.938H7.344V11.75z" fill="#000"/></svg>