<svg width="60" height="60" fill="none" xmlns="http://www.w3.org/2000/svg"><path d="M22.059 34.412l-6.353-2.471c-.882-.265-1.059-.794-.882-1.853 0 0 3.088-3.441 3.088-6 0-3.53-2.382-6.442-5.294-6.442-2.912 0-5.294 3-5.294 6.442 0 2.647 2.912 6 2.912 6 .088 1.059-.265 1.5-1.148 1.765l-6.44 2.559C1.765 34.765 0 36.176 0 37.059c0 1.94 1.853 3.53 3.53 3.53h17.646c2.912 0 3.53-3.53 3.53-3.53 0-.794-1.765-1.941-2.647-2.647zm34.411 0l-6.352-2.471c-.883-.265-1.059-.794-.883-1.853 0 0 3.089-3.441 3.089-6 0-3.53-2.382-6.442-5.294-6.442-2.912 0-5.294 3-5.294 6.442 0 2.647 2.912 6 2.912 6 .088 1.059-.265 1.5-1.148 1.765l-6.441 2.559c-.883.353-2.647 1.764-2.647 2.647 0 1.94 1.853 3.53 3.53 3.53h17.646c2.912 0 3.53-3.53 3.53-3.53 0-.794-1.765-1.941-2.648-2.647zm-9.176-23.471C42.706 6.176 36.618 3.53 30 3.53c-6.177 0-12 2.294-16.412 6.53l-2.47-2.56C16.234 2.647 22.94 0 30 0c7.588 0 14.558 3 19.764 8.47l-2.47 2.471z" fill="#000"/><path d="M52.059 13.235h-11.47V9.706h7.94V1.765h3.53v11.47zM32.647 60c-7.588 0-14.559-3-19.765-8.47l2.56-2.471c4.5 4.765 10.587 7.412 17.205 7.412 6.177 0 12-2.294 16.412-6.53l2.47 2.559C46.413 57.353 39.707 60 32.648 60z" fill="#000"/><path d="M14.117 58.235h-3.529v-11.47h11.47v3.53h-7.94v7.94z" fill="#000"/></svg>