<svg width="70" height="63" fill="none" xmlns="http://www.w3.org/2000/svg"><path d="M48.412 52.495a1.202 1.202 0 01-1.195-1.21l.056-8.206a8.159 8.159 0 011.258-4.303l1.772-2.811a5.78 5.78 0 00.889-3.038l.031-4.571a4.416 4.416 0 014.44-4.38 4.409 4.409 0 014.38 4.44l-.075 11.05a1.202 1.202 0 01-1.202 1.194h-.008a1.202 1.202 0 01-1.195-1.21l.076-11.05a1.999 1.999 0 00-.577-1.423c-1.252-1.27-3.422-.38-3.435 1.395l-.031 4.571a8.16 8.16 0 01-1.258 4.303l-1.772 2.811a5.78 5.78 0 00-.889 3.038l-.056 8.206a1.204 1.204 0 01-1.21 1.194z" fill="#000"/><path d="M61.72 51.398c-.03-4.178 2.46-7.898 3.947-9.743a8.496 8.496 0 001.778-3.889c.506-2.954-.364-5.184-.927-6.25-.55-1.04-1.02-2.02-1.44-2.997l-6.8-15.824a2.007 2.007 0 00-3.712 1.528l5.178 12.564a1.204 1.204 0 01-.653 1.57 1.204 1.204 0 01-1.57-.653l-5.177-12.565c-1.192-2.89.93-6.106 4.105-6.09a4.4 4.4 0 014.045 2.721c6.938 16.048 6.82 16.114 8.146 18.622 1.914 3.625 2.032 8.878-1.105 12.77-1.286 1.596-3.438 4.786-3.415 8.218a1.201 1.201 0 01-1.192 1.21c-.618.02-1.202-.5-1.207-1.192z" fill="#000"/><path d="M64.36 62.136h-.019L46.97 62.02a2.535 2.535 0 01-2.516-2.55l.046-6.873a2.536 2.536 0 012.55-2.516l17.37.117a2.531 2.531 0 012.516 2.55l-.045 6.874a2.537 2.537 0 01-2.532 2.515zm-17.456-9.525l-.048 6.875a.13.13 0 00.13.129l17.372.117c.072 0 .13-.057.13-.129l.045-6.874a.129.129 0 00-.13-.129l-17.37-.117a.13.13 0 00-.13.128h.001zM20.378 51.3l-.055-8.205a5.775 5.775 0 00-.89-3.038l-1.771-2.81a8.154 8.154 0 01-1.258-4.304l-.031-4.571a2.008 2.008 0 00-4.014.026l.075 11.05a1.202 1.202 0 11-2.404.016l-.075-11.05a4.412 4.412 0 018.825-.06l.031 4.571a5.776 5.776 0 00.889 3.038l1.772 2.811a8.156 8.156 0 011.258 4.303l.055 8.206a1.201 1.201 0 01-1.194 1.21 1.2 1.2 0 01-1.213-1.192z" fill="#000"/><path d="M7.071 52.592a1.199 1.199 0 01-1.192-1.21c.023-3.432-2.13-6.623-3.415-8.218C-.675 39.27-.552 34.01 1.36 30.396c1.331-2.518 1.261-2.7 8.146-18.622a4.4 4.4 0 014.045-2.721c3.152-.02 5.305 3.182 4.105 6.09L12.48 27.708a1.202 1.202 0 11-2.222-.917l5.177-12.564a2.004 2.004 0 00-1.09-2.62c-.969-.398-2.145-.01-2.628 1.108-6.95 16.069-6.836 16.162-8.231 18.804-1.477 2.795-1.667 7.015.851 10.137 1.486 1.846 3.976 5.565 3.946 9.744a1.206 1.206 0 01-1.21 1.193v-.001z" fill="#000"/><path d="M5.641 62.136a2.53 2.53 0 01-2.531-2.515l-.046-6.874a2.535 2.535 0 012.516-2.55l17.372-.117a2.535 2.535 0 012.549 2.516l.045 6.874a2.535 2.535 0 01-2.515 2.55l-17.372.116h-.018zm-.174-9.405c.064 7.307.012 6.894.085 6.965a.123.123 0 00.091.038l17.372-.117a.13.13 0 00.129-.13l-.046-6.873a.129.129 0 00-.129-.13l-17.371.118a.129.129 0 00-.131.129zM35 23.463c-5.138 0-9.318-4.18-9.318-9.318S29.862 4.828 35 4.828c5.139 0 9.319 4.18 9.319 9.319 0 5.138-4.18 9.316-9.319 9.316zm0-16.232a6.92 6.92 0 00-6.913 6.914A6.92 6.92 0 0035 21.058a6.92 6.92 0 006.914-6.913c0-3.812-3.1-6.914-6.914-6.914z" fill="#000"/><path d="M35 28.295c-7.8 0-14.147-6.347-14.147-14.147C20.853 6.347 27.199 0 35 0s14.148 6.347 14.148 14.148c0 7.8-6.346 14.147-14.148 14.147zm0-25.892c-6.475 0-11.745 5.267-11.745 11.745 0 6.476 5.27 11.745 11.745 11.745 6.476 0 11.746-5.269 11.746-11.745C46.743 7.672 41.476 2.403 35 2.403z" fill="#000"/><path d="M35.144 18.535h-1.752a1.201 1.201 0 110-2.404c1.617-.012 1.802.02 1.897-.018.028-.033.113-.204.113-.581a.261.261 0 00-.258-.258c-1.766 0-2.954-1.07-2.954-2.662v-.195a2.665 2.665 0 012.662-2.662h1.752a1.201 1.201 0 110 2.404h-1.75a.261.261 0 00-.259.258c.004.07-.01.287.02.34.017.021.174.114.53.114a2.665 2.665 0 012.662 2.663c0 1.823-1.046 3.001-2.663 3.001z" fill="#000"/><path d="M35.169 20.349a1.201 1.201 0 01-1.202-1.202v-1.764a1.201 1.201 0 112.404 0v1.764a1.204 1.204 0 01-1.202 1.202zm0-8.182a1.201 1.201 0 01-1.202-1.202v-1.82a1.201 1.201 0 112.404 0v1.82a1.205 1.205 0 01-1.202 1.202z" fill="#000"/></svg>