<svg width="70" height="61" fill="none" xmlns="http://www.w3.org/2000/svg"><path d="M39.254 60.745H2.152A2.154 2.154 0 010 58.593V36.374c0-1.187.965-2.152 2.152-2.152h37.103c1.187 0 2.152.966 2.152 2.152v22.219a2.154 2.154 0 01-2.152 2.151h-.001zM2.152 35.299c-.593 0-1.075.482-1.075 1.075v22.219c0 .592.482 1.074 1.075 1.074h37.103c.593 0 1.075-.481 1.075-1.074v-22.22c0-.592-.483-1.074-1.075-1.074H2.152z" fill="#000"/><path d="M35.983 58.017a2.714 2.714 0 01-2.71-2.71 2.714 2.714 0 012.71-2.71 2.714 2.714 0 012.71 2.71 2.713 2.713 0 01-2.71 2.71zm0-4.344c-.901 0-1.634.733-1.634 1.633a1.635 1.635 0 003.267 0c0-.9-.733-1.633-1.633-1.633z" fill="#000"/><path d="M32.814 58.016a2.713 2.713 0 01-2.71-2.71 2.713 2.713 0 012.71-2.71c.749 0 1.471.315 1.98.864a.538.538 0 11-.79.732 1.609 1.609 0 00-1.19-.52c-.901 0-1.633.733-1.633 1.633a1.635 1.635 0 002.825 1.117.539.539 0 01.786.736 2.722 2.722 0 01-1.978.858zm7.962-13.151H.628a.538.538 0 110-1.077h40.148a.538.538 0 110 1.077zm0-4.481H.628a.538.538 0 110-1.077h40.148a.538.538 0 110 1.077zM14.185 54.798H3.73a.538.538 0 110-1.076h10.456a.538.538 0 110 1.076zm32.69-23.396a.538.538 0 01-.476-.791l1.518-2.862a.537.537 0 11.952.505l-1.518 2.862a.54.54 0 01-.476.286zm9.35-17.635a.538.538 0 01-.475-.79l1.517-2.863a.538.538 0 11.951.504l-1.517 2.863a.537.537 0 01-.476.286zm-3.924 12.297c-.86 0-1.733-.204-2.544-.634a5.456 5.456 0 01-2.262-7.369 5.456 5.456 0 017.368-2.262 5.456 5.456 0 012.262 7.368 5.455 5.455 0 01-4.824 2.897zm.015-9.825c-.431 0-.865.065-1.29.195a4.346 4.346 0 00-2.58 2.132 4.342 4.342 0 00-.316 3.332 4.346 4.346 0 002.132 2.58 4.379 4.379 0 005.913-1.815 4.342 4.342 0 00.316-3.332 4.344 4.344 0 00-2.132-2.58 4.354 4.354 0 00-2.043-.512z" fill="#000"/><path d="M53.256 41.229a.547.547 0 01-.253-.063l-10.257-5.44a.54.54 0 01.505-.952l9.781 5.188 15.702-29.607-17.148-9.089-5.712 10.774a.537.537 0 11-.95-.504L50.885.286a.537.537 0 01.728-.223l18.1 9.593a.54.54 0 01.224.728L53.73 40.942a.539.539 0 01-.476.287z" fill="#000"/><path d="M49.867 36.593a.534.534 0 01-.251-.063l-4.468-2.366a.539.539 0 01.503-.951l4.034 2.135a3.213 3.213 0 013.53-1.083l10.906-20.564a3.203 3.203 0 01-1.083-3.53l-8.103-4.292a3.211 3.211 0 01-3.53 1.083l-5.53 10.427a.538.538 0 01-.951-.504l5.759-10.862a.538.538 0 01.727-.224 2.127 2.127 0 002.865-.879.539.539 0 01.728-.223l8.974 4.753a.54.54 0 01.224.729c-.265.5-.32 1.072-.153 1.612.166.541.533.985 1.033 1.25.262.14.362.466.223.73L53.936 35.203a.539.539 0 01-.726.224 2.126 2.126 0 00-2.866.879.54.54 0 01-.477.285z" fill="#000"/><path d="M50.404 20.144a.538.538 0 01-.252-.063l-.438-.232a.539.539 0 11.505-.952l.438.232a.539.539 0 01-.253 1.015z" fill="#000"/><path d="M53.258 22.735a1.619 1.619 0 01-1.425-2.373.536.536 0 00-.223-.729.536.536 0 00-.73.224.54.54 0 00.224.73.54.54 0 01-.504.951 1.606 1.606 0 01-.788-.954 1.605 1.605 0 01.117-1.231c.202-.381.54-.661.953-.788.413-.127.85-.084 1.232.117.382.203.661.541.788.954.127.413.085.85-.117 1.232a.54.54 0 10.728-.224.54.54 0 01.505-.952 1.619 1.619 0 01.671 2.185c-.29.546-.85.858-1.43.858z" fill="#000"/><path d="M54.652 22.396a.538.538 0 01-.252-.063l-.439-.232a.539.539 0 11.505-.952l.439.233a.539.539 0 01-.253 1.014zm-40.786-4.553a.537.537 0 01-.476-.286l-1.518-2.863a.538.538 0 11.951-.504l1.518 2.862a.538.538 0 01-.475.791zm3.923 12.3a5.46 5.46 0 01-1.607-.243 5.413 5.413 0 01-3.215-2.657 5.455 5.455 0 012.262-7.368 5.413 5.413 0 014.153-.395 5.412 5.412 0 013.215 2.658 5.413 5.413 0 01.395 4.152 5.415 5.415 0 01-2.657 3.216 5.438 5.438 0 01-2.546.637zm-.013-9.829c-.704 0-1.403.172-2.043.512a4.346 4.346 0 00-2.132 2.58 4.346 4.346 0 00.317 3.333 4.346 4.346 0 002.58 2.132c1.118.343 2.3.23 3.332-.317a4.346 4.346 0 002.132-2.58c.343-1.117.23-2.3-.317-3.333a4.348 4.348 0 00-2.58-2.132 4.396 4.396 0 00-1.289-.195z" fill="#000"/><path d="M11.528 35.298a.537.537 0 01-.476-.287L.158 14.461a.538.538 0 01.223-.728l18.094-9.594a.539.539 0 01.728.224l6.189 11.674a.538.538 0 11-.952.505L18.503 5.343 1.361 14.431l10.642 20.076a.538.538 0 01-.475.79z" fill="#000"/><path d="M14.367 35.298a.539.539 0 01-.476-.287L4.792 17.847a.538.538 0 01.224-.727 2.127 2.127 0 00.878-2.866.539.539 0 01.225-.727l8.97-4.753a.538.538 0 01.727.223 2.127 2.127 0 002.866.879.54.54 0 01.727.224l5.983 11.292a.54.54 0 01-.951.505l-5.755-10.858a3.212 3.212 0 01-3.53-1.083L7.057 14.25a3.211 3.211 0 01-1.083 3.53l8.867 16.728a.539.539 0 01-.474.79z" fill="#000"/><path d="M19.687 24.219a.539.539 0 01-.253-1.015l.439-.233a.54.54 0 01.505.952l-.439.233a.534.534 0 01-.252.063z" fill="#000"/><path d="M16.832 26.811c-.16 0-.32-.024-.477-.072a1.607 1.607 0 01-.954-.787 1.61 1.61 0 01-.117-1.232 1.61 1.61 0 01.788-.954.54.54 0 01.505.952.54.54 0 10.729.224 1.618 1.618 0 01.67-2.185 1.619 1.619 0 012.303 1.903 1.607 1.607 0 01-.787.954.54.54 0 01-.505-.952.54.54 0 10-.73-.224c.203.382.244.819.118 1.231a1.607 1.607 0 01-.788.954 1.621 1.621 0 01-.755.188z" fill="#000"/><path d="M15.44 26.47a.539.539 0 01-.253-1.014l.439-.232a.539.539 0 11.504.951l-.438.233a.53.53 0 01-.252.063zm19.719 3.623a.538.538 0 01-.539-.538v-3.24a.538.538 0 111.077 0v3.24a.539.539 0 01-.538.538zm0-19.961a.538.538 0 01-.539-.538v-3.24a.538.538 0 111.077 0v3.24a.538.538 0 01-.538.538zm0 13.272a5.456 5.456 0 01-5.45-5.45 5.456 5.456 0 015.45-5.45 5.456 5.456 0 015.45 5.45 5.456 5.456 0 01-5.45 5.45zm0-9.823a4.378 4.378 0 00-4.373 4.373 4.378 4.378 0 004.373 4.373 4.378 4.378 0 004.373-4.373 4.378 4.378 0 00-4.373-4.373z" fill="#000"/><path d="M45.4 35.788h-4.99a.538.538 0 110-1.077h4.45V1.196H25.457v33.565a.538.538 0 11-1.078 0V.658c0-.298.241-.539.539-.539H45.4c.298 0 .539.241.539.539v34.591a.539.539 0 01-.539.539z" fill="#000"/><path d="M40.236 33.28H30.082a.538.538 0 01-.538-.539 2.12 2.12 0 00-2.118-2.117.538.538 0 01-.538-.539V5.823c0-.298.24-.538.538-.538a2.12 2.12 0 002.118-2.118c0-.298.24-.538.538-.538h10.154c.298 0 .539.24.539.538a2.12 2.12 0 002.117 2.118c.298 0 .539.24.539.538v24.262c0 .298-.24.539-.538.539a2.12 2.12 0 00-2.118 2.117c0 .297-.24.539-.539.539zm-9.661-1.077h9.169a3.201 3.201 0 012.61-2.61V6.315a3.202 3.202 0 01-2.61-2.61l-9.17-.001a3.201 3.201 0 01-2.61 2.61v23.277a3.202 3.202 0 012.61 2.61z" fill="#000"/><path d="M37.81 18.492h-.496a.538.538 0 110-1.077h.497a.538.538 0 110 1.077z" fill="#000"/><path d="M36.237 19.57a.538.538 0 110-1.077.54.54 0 10-.539-.539c0 .892-.725 1.616-1.616 1.616-.89 0-1.616-.725-1.616-1.616 0-.89.725-1.616 1.616-1.616a.538.538 0 110 1.077.54.54 0 10.54.54c0-.892.724-1.617 1.615-1.617s1.616.726 1.616 1.616c0 .891-.724 1.616-1.616 1.616z" fill="#000"/><path d="M33.004 18.492h-.496a.538.538 0 110-1.077h.495a.538.538 0 110 1.077z" fill="#000"/></svg>