<svg width="1440" height="53" fill="none" xmlns="http://www.w3.org/2000/svg"><path fill="#FFC61A" d="M0 0h1440v53H0z"/><path fill="#060606" d="M0 27h31v26H0zm186 0h31v26h-31zm186 0h31v26h-31zm186 0h31v26h-31zm186 0h31v26h-31zm186-1h31v26h-31zm186 1h31v26h-31z"/><path fill="#000" d="M31 1h31v26H31zm186 0h31v26h-31zm186 0h31v26h-31zm186 0h31v26h-31zm186 0h31v26h-31zm186-1h31v26h-31zm186 1h31v26h-31zM62 27h31v26H62zm186 0h31v26h-31zm186 0h31v26h-31zm186 0h31v26h-31zm186 0h31v26h-31zm186-1h31v26h-31zm186 1h31v26h-31zM93 1h31v26H93zm186 0h31v26h-31zm186 0h31v26h-31zm186 0h31v26h-31zm186 0h31v26h-31zm186-1h31v26h-31zm186 1h31v26h-31zM124 27h31v26h-31zm186 0h31v26h-31zm186 0h31v26h-31zm186 0h31v26h-31zm186 0h31v26h-31zm186-1h31v26h-31zm186 1h31v26h-31zM155 1h31v26h-31zm186 0h31v26h-31zm186 0h31v26h-31zm186 0h31v26h-31zm186 0h31v26h-31zm186-1h31v26h-31zm186 1h31v26h-31z"/><path fill="#060606" d="M1300 27h31v26h-31z"/><path fill="#000" d="M1331 1h31v26h-31zm31 26h31v26h-31zm31-26h31v26h-31zm31 26h14v26h-14z"/></svg>