<svg width="70" height="57" fill="none" xmlns="http://www.w3.org/2000/svg"><path d="M65.922 19.33h-.165a11.84 11.84 0 012.357 7.414v13.493a2.856 2.856 0 01-2.857 2.857H61.65a2.858 2.858 0 01-2.857-2.857v-2.143H56.65a16.657 16.657 0 00-.543-3.064 7.383 7.383 0 002.478-5.371v-2.272a7.282 7.282 0 00-7.085-7.093h-1.25c-.238 0-.476.012-.714.036a37.464 37.464 0 00-2.807-5.372 13.943 13.943 0 00-9.45-5.657 58.438 58.438 0 00-10.25-.714h-2.343a31.002 31.002 0 012.2-4.214A9.486 9.486 0 0133.413.58c3.15-.463 6.333-.65 9.514-.557a54.615 54.615 0 019.48.614 9.487 9.487 0 016.528 3.793c1.064 1.521 2.757 5.328 4.1 8.664a4.757 4.757 0 013.157-1.428h1.043A2.795 2.795 0 0170 14.473v2.007a2.906 2.906 0 01-2.857 2.857l-1.221-.008zM0 29.58v-2.008a2.79 2.79 0 012.75-2.757h1.043a4.758 4.758 0 013.157 1.428c1.35-3.35 3.043-7.142 4.1-8.671a9.488 9.488 0 016.529-3.793 54.617 54.617 0 019.493-.686 54.62 54.62 0 019.479.615 9.485 9.485 0 016.528 3.793c1.057 1.528 2.75 5.328 4.1 8.671a4.755 4.755 0 013.157-1.429h1.043a2.794 2.794 0 012.75 2.758v2.007a2.908 2.908 0 01-2.857 2.857h-1.378a11.846 11.846 0 012.357 7.414v13.5a2.858 2.858 0 01-2.857 2.857h-3.608a2.857 2.857 0 01-2.857-2.856v-2.143H11.171v2.143a2.858 2.858 0 01-2.857 2.856H4.693a2.856 2.856 0 01-2.857-2.856V39.843a11.843 11.843 0 012.357-7.414H2.857A2.907 2.907 0 010 29.579zm35.45 9.5a2.2 2.2 0 002.193 2.2h5.215A2.199 2.199 0 0045 39.08v-1.358a2.193 2.193 0 00-2.75-2.143l-5.171 1.357a2.195 2.195 0 00-1.614 2.143h-.014zm-26.356 0h-.001a2.195 2.195 0 002.193 2.199h5.172a2.193 2.193 0 00.557-4.285l-5.172-1.358a2.192 2.192 0 00-2.75 2.143v1.3z" fill="#000"/></svg>