<svg width="50" height="50" fill="none" xmlns="http://www.w3.org/2000/svg"><path fill-rule="evenodd" clip-rule="evenodd" d="M28.995 1.536A1.783 1.783 0 0027.418.118a24.876 24.876 0 00-4.836 0c-.78.075-1.42.65-1.577 1.418l-.496 2.421c-.723.154-1.437.345-2.141.573l-1.641-1.848a1.79 1.79 0 00-2.075-.441 25.105 25.105 0 00-4.188 2.418 1.786 1.786 0 00-.655 2.017l.778 2.345a21.363 21.363 0 00-1.566 1.568c0-.002-2.345-.78-2.345-.78a1.785 1.785 0 00-2.017.655A25.113 25.113 0 002.24 14.65a1.788 1.788 0 00.441 2.075l1.848 1.641c-.228.704-.42 1.418-.575 2.142l-2.42.496a1.783 1.783 0 00-1.417 1.577 24.876 24.876 0 000 4.836c.075.78.65 1.42 1.418 1.577l2.421.496c.154.723.345 1.437.573 2.141l-1.848 1.641a1.79 1.79 0 00-.441 2.075 25.105 25.105 0 002.418 4.188 1.786 1.786 0 002.017.655l2.345-.778a21.364 21.364 0 001.568 1.566c-.002 0-.78 2.345-.78 2.345-.25.744.017 1.56.655 2.017a25.113 25.113 0 004.187 2.418 1.788 1.788 0 002.075-.441l1.641-1.848a21.7 21.7 0 002.142.575l.496 2.42a1.783 1.783 0 001.577 1.417c1.609.157 3.226.157 4.836 0 .78-.075 1.42-.65 1.577-1.418l.496-2.421a21.199 21.199 0 002.141-.573l1.641 1.848a1.79 1.79 0 002.075.441 25.101 25.101 0 004.188-2.418 1.786 1.786 0 00.655-2.017l-.778-2.345a21.37 21.37 0 001.566-1.568c0 .002 2.345.78 2.345.78a1.785 1.785 0 002.017-.655 25.113 25.113 0 002.418-4.187 1.788 1.788 0 00-.441-2.075l-1.848-1.641c.228-.704.42-1.418.575-2.142l2.42-.496a1.783 1.783 0 001.417-1.577 24.869 24.869 0 000-4.836 1.783 1.783 0 00-1.418-1.577l-2.421-.496a21.199 21.199 0 00-.573-2.141l1.848-1.641a1.79 1.79 0 00.441-2.075 25.101 25.101 0 00-2.418-4.188 1.786 1.786 0 00-2.017-.655l-2.345.778A21.371 21.371 0 0039.41 9.02c.002 0 .78-2.345.78-2.345a1.785 1.785 0 00-.655-2.017A25.113 25.113 0 0035.35 2.24a1.788 1.788 0 00-2.075.441L31.633 4.53a21.685 21.685 0 00-2.142-.575l-.496-2.42zm-3.225 2.05l.466 2.268c.15.732.741 1.293 1.478 1.407a17.79 17.79 0 013.806 1.02c.696.269 1.487.08 1.984-.48L35.04 6.07c.454.242.898.497 1.332.77l-.73 2.198c-.236.71-.005 1.49.579 1.958a17.984 17.984 0 012.783 2.783 1.786 1.786 0 001.958.58l2.198-.731c.273.434.529.878.77 1.332l-1.733 1.538a1.789 1.789 0 00-.478 1.983 17.867 17.867 0 011.02 3.806 1.788 1.788 0 001.406 1.478l2.268.466c.02.513.02 1.027 0 1.54l-2.268.465a1.788 1.788 0 00-1.407 1.479 17.867 17.867 0 01-1.02 3.805 1.788 1.788 0 00.48 1.984l1.732 1.538c-.241.453-.496.898-.77 1.332l-2.198-.73a1.786 1.786 0 00-1.958.578 17.984 17.984 0 01-2.783 2.784 1.786 1.786 0 00-.58 1.957l.731 2.198c-.434.274-.878.53-1.332.77l-1.537-1.732a1.789 1.789 0 00-1.984-.479 17.867 17.867 0 01-3.806 1.02 1.788 1.788 0 00-1.478 1.407l-.466 2.268c-.513.02-1.027.02-1.54 0l-.465-2.268a1.788 1.788 0 00-1.479-1.407 17.867 17.867 0 01-3.805-1.02 1.788 1.788 0 00-1.984.479L14.96 43.93a20.924 20.924 0 01-1.333-.77l.73-2.198a1.784 1.784 0 00-.578-1.957 17.984 17.984 0 01-2.784-2.784 1.786 1.786 0 00-1.957-.579l-2.198.73a21.1 21.1 0 01-.77-1.331l1.732-1.538a1.789 1.789 0 00.479-1.984 17.866 17.866 0 01-1.02-3.805 1.788 1.788 0 00-1.407-1.479l-2.268-.465a20.23 20.23 0 010-1.54l2.268-.466a1.788 1.788 0 001.407-1.478 17.85 17.85 0 011.02-3.806c.27-.696.08-1.487-.479-1.983L6.07 14.959c.241-.454.496-.898.77-1.332l2.198.73c.709.236 1.49.005 1.957-.579a17.984 17.984 0 012.784-2.783 1.786 1.786 0 00.579-1.958l-.73-2.198a21.42 21.42 0 011.332-.77l1.537 1.733a1.789 1.789 0 001.984.478 17.866 17.866 0 013.805-1.02 1.788 1.788 0 001.479-1.406l.466-2.268a20.23 20.23 0 011.539 0zm.773 9.802a1.784 1.784 0 00-3.086 0l-3.068 5.266-5.957 1.291a1.786 1.786 0 00-.954 2.934l4.061 4.545-.614 6.064a1.791 1.791 0 00.729 1.626 1.784 1.784 0 001.77.189L25 32.846l5.577 2.457a1.785 1.785 0 001.77-.19 1.79 1.79 0 00.729-1.625l-.615-6.064 4.061-4.545a1.784 1.784 0 00-.954-2.934l-5.957-1.29-3.068-5.267zM25 17.834l1.922 3.299c.252.432.674.739 1.164.846l3.73.807-2.543 2.845a1.784 1.784 0 00-.445 1.37l.384 3.798-3.493-1.54a1.787 1.787 0 00-1.439 0l-3.493 1.54.384-3.798a1.782 1.782 0 00-.445-1.37l-2.543-2.845 3.73-.807a1.79 1.79 0 001.165-.846l1.921-3.299H25z" fill="#F90000"/></svg>