<svg width="100" height="92" fill="none" xmlns="http://www.w3.org/2000/svg"><path fill-rule="evenodd" clip-rule="evenodd" d="M30.655 83.485c5.437-5.659 2.218-3.551 4.549-6.88.666-.887-.777-2.218-.11-2.773.665-.666 1.553-8.876 0-9.542-1.443-.777-4.217-.11-5.66 3.44-.776 1.885-.443 2.995-2.33 4.326-.332.223-1.775 1.887-1.886 3.218-.11 1.33-2.773 2.44-3.217-.888-.443-3.329.666-2.996 1.775-3.994 1.11-.888 4.328-4.217 4.328-5.77 0-1.775-4.883-1.886-5.548-1.443-.666.444-4.327 1.664-4.882-2.218-.555-3.995-4.105-.111-4.77-1.664-.666-1.554.11-1.443 1.22-2.109.998-.665 2.663-.888.11-2.219-2.44-1.33-5.658.777-6.324.555-2.441-.887-1.331-3.994 2.884-4.216 1.997-.11 7.989-.666 6.99-2.441-.998-1.886-5.325 0-6.657-.222-1.331-.222-2.33-1.776-1.443-3.107.777-1.331 4.883-.555 4.66-1.997-.11-1.442-7.433-4.77-9.874-4.66-2.441 0-4.771.555-4.438-1.664.333-2.218 7.988-1.11 10.652-1.11 2.663 0 5.325-2.44 7.1-2.773 1.887-.333.111.11.556 0 .555-.111 1.775-.111 2.44 0 3.44.443 4.883-2.109 2.109-4.66-2.663-2.552-1.664-4.993-5.77-5.991-.777-.223-1.886-.223-2.44-1.221-.444-.888-5.881-3.107-6.88-4.993-1.33-2.663-2.551-3.439-.332-5.215.665-.443 3.439-.332 4.216 1.554.333.888.777 2.552 1.553 2.663.777.11 2.663 4.105 5.991 5.104 3.33.998 3.33.998 3.884.998.555.111 3.217 1.887 3.884 1.776.665-.11 2.219-.666 3.329-.666.998 0 .665.333 1.553.555.888.222.555 0 1.22 0 .666 0 .333-1.886 1.554-2.108 0 0-3.218-3.884-1.886-5.326 1.33-1.664 6.102 5.548 6.99 3.33.777-2.11-2.219-8.212-2.663-9.543-4.66-12.87 8.876-10.43 9.32-4.216.443 6.213-.333 15.755 4.992 8.1 0 0 1.664-1.443 1.664-5.105 0-3.662 4.217-2.441 3.773 0-.223 1.22.11 4.993 1.663 4.438.556-.222-.222-3.33 1.221-3.995 1.443-.555 2.108 0 1.664 2.441-.222 2.441.555 2.885 1.997.444.333-.444 1.442 1.22 1.664-.222.222-1.443 2.663-.333 3.329 0 .665.332 1.886 0 2.663-.333.555-.222 1.996-.998 2.33-1.553.555-.666 1.443-3.107 1.553-3.44 1.443-3.44 6.103-2.663 4.328.11-1.554 2.553-4.66 4.439-6.546 6.88-.778 1.11.554 1.331 1.442.665.555-.443 3.217-1.886 3.662.223.443 2.44-3.995 3.217-4.438 3.883-5.215 8.322 4.105.666 5.437.444 1.442-.333-.999 1.553.222 3.107 2.33 2.995 4.105.11 5.547-1.11 1.443-1.22 5.215-1.443 5.992 1.442.777 2.885-1.776 3.218-2.33 4.882-.666 1.554-1.221.888-2.331 1.554-1.11.665-2.663 4.549-.888 4.77 1.775.222 8.432-2.44 6.768.666-.888 1.664-4.993 1.331-6.768 1.997-1.997.777 5.77.222 5.77 1.886.11 1.22-2.33 1.886-4.66.998-2.33-.777-3.329-.998-4.438-.222-1.11.777-1.331 4.882.888 5.326 1.664.332-.888 5.658 1.331 4.882 2.219-.777 13.647 3.994 15.312 6.213 1.664 2.219-1.443 4.993-4.66 3.217-3.44-1.997-5.437-4.327-9.764-4.55-.888-.11-4.55-.443-5.77.112-1.22.554-1.664 4.216.665 5.88 2.22 1.553-1.22 1.776 1.443 4.882.333.444 9.985 9.21 5.77 10.097-4.993.998-2.774-3.884-4.882-6.546-.666-.888-3.44-2.996-4.55-5.658-1.11-2.663-6.213 1.664-1.442 3.55 3.772 1.554 6.325 12.094-1.443 10.763-2.663-.444 2.552 5.326-1.22 3.994-3.773-1.33 1.11 2.552.887 4.217-.222 1.664-.665 1.664-1.442.998-.777-.665-2.774-3.55-3.33-4.105-.665-.555-1.109-.888-1.109-.665-.11.665 2.663 4.327 2.996 4.77 2.774 4.216-1.775 4.438-3.329.666-1.442-3.884-3.772-7.101-3.772-7.767 0-.665-1.331.555-1.553-.555-.222-1.22-2.33 3.662-1.11 6.546 1.22 2.996-1.443 3.218-1.776.888-.222-1.664-.222-6.325-3.883-6.213-1.22.333-3.107-.333-5.105-2.22-1.996-1.885-3.772 2.997-2.884 8.544.887 5.548-5.548 9.432-6.213-.665-.666-9.431-4.993-7.101-6.214-1.331-.997 5.882-9.318 4.55-4.88-.11zm51.26-67.904c-.222 1.554 5.437-1.775 7.211-3.439 4.106-3.994 13.204-7.1 10.319-11.428-2.884-4.439-17.308 13.204-17.53 14.867z" fill="#FFC61A"/></svg>