<svg width="278" height="313" fill="none" xmlns="http://www.w3.org/2000/svg"><path fill-rule="evenodd" clip-rule="evenodd" d="M244.421 239.347c-14.668-18.413-9.679-8.007-18.65-16.258-2.375-2.332-6.906 1.43-8.292-.772-1.715-2.244-25.778-8.143-28.374-3.788-2.883 3.981-2.003 12.494 7.981 18.191 5.3 3.06 8.733 2.508 11.942 8.648.529 1.078 4.904 6.028 8.818 6.885 3.915.858 6.158 9.218-3.916 9.215-10.075-.003-8.645-3.169-11.173-6.865-2.199-3.653-10.821-14.541-15.44-15.158-5.279-.705-7.546 13.769-6.492 15.924 1.055 2.155 3.231 13.528-8.536 13.637-12.098.064-1.958 12.163-6.841 13.525-4.884 1.363-4.246-.902-5.785-4.466-1.583-3.233-1.583-8.271-6.554-1.21-4.928 6.73.064 17.134-.861 19.028-3.609 6.906-12.406 2.372-11.393-10.252.464-5.981 1.192-24.019-4.484-21.755-6.004 2.22-2.114 15.836-3.303 19.709-1.189 3.87-6.204 6.225-9.811 3.056-3.65-2.839.288-14.737-4.087-14.649-4.334-.244-17.137 20.211-17.778 27.514-.969 7.258-.243 14.406-6.71 12.535-6.465-1.87-.128-24.195.929-32.115 1.057-7.92-5.145-16.805-5.43-22.217-.24-5.74.374-.285.22-1.65-.108-1.694.377-5.323.97-7.258 2.684-10.052-4.331-15.355-13.02-8.12-8.645 6.906-15.507 2.967-20.106 14.779-.969 2.223-1.41 5.521-4.598 6.774-2.816.967-11.573 16.253-17.577 18.474-8.448 2.901-11.24 6.222-15.64-1.081-1.054-2.155.376-10.359 6.293-11.921 2.772-.638 7.897-1.298 8.536-3.562.638-2.267 13.264-6.29 17.556-15.789 4.29-9.502 4.29-9.502 4.51-11.153.55-1.606 6.886-8.818 6.822-10.844-.065-2.023-1.098-6.862-.658-10.162.397-2.969 1.254-1.847 2.267-4.399s.22-1.65.484-3.629c.265-1.98-5.476-1.739-5.652-5.456 0 0-12.826 8.025-16.585 3.494-4.42-4.619 18.919-15.944 12.673-19.465-5.96-3.147-25.296 3.339-29.431 4.131-40.123 8.748-27.49-30.535-8.838-29.387 18.651 1.148 46.718 7.244 26.066-11.631 0 0-3.63-5.521-14.517-6.974-10.889-1.454-5.585-13.507 1.497-11.218 3.541 1.145 14.89 1.653 13.857-3.186-.44-1.738-9.987-.661-11.394-5.215-1.077-4.51.837-6.269 7.92-3.979 7.17 1.629 8.797-.505 2.11-5.762-1.186-1.165 4.203-3.805.001-5.036-4.202-1.233.067-8.051 1.321-9.898 1.254-1.847.75-5.609.068-8.051-.44-1.739-2.176-6.334-3.694-7.547-1.759-1.914-8.665-5.523-9.61-5.984-9.655-5.655-5.497-19.204 2.046-12.824 6.971 5.632 11.346 15.62 17.857 22.197 2.992 2.75 4.179-1.122 2.552-4.026-1.099-1.826-4.332-10.316 2.114-10.8 7.434-.35 7.981 13.155 9.787 14.738 22.675 18.81 3.609-11.942 3.477-15.991-.417-4.422 4.223 3.585 9.326.573 9.834-5.74 1.959-12.163-1.098-16.937-3.056-4.775-2.22-16.08 6.668-17.243 8.886-1.166 8.862 6.557 13.593 8.868 4.354 2.596 2.155 3.982 3.694 7.546 1.538 3.565 12.47 9.725 13.833 4.534 1.365-5.192-3.911-26.044 4.666-19.862 4.596 3.3 1.977 15.375 3.251 20.919 1.518 6.246 2.951-17.07 7.899-16.409 3.673.156 4.683 7.679 1.119 14.254-3.236 6.621-4.29 9.502-2.422 13.108 1.87 3.608 13.989 5.896 16.188-.526 1.65-4.816 16.474 4.886 15.046-2.02-1.429-6.907 17.295-38.996 24.554-43.065 7.259-4.067 14.274 6.271 7.717 15.134-7.303 9.435-15.025 14.45-17.404 27.229-.681 2.596-3.124 13.352-1.961 17.2 1.166 3.85 11.878 6.623 17.751.356 5.499-5.982 4.795 4.334 15.09-2.352 1.451-.814 31.348-26.037 32.315-13.149.987 15.243-12.65 6.707-21.404 11.92-2.904 1.626-10.274 9.037-18.631 11.28-8.36 2.244 2.481 19.137 9.986 5.7 6.116-10.6 38.473-14.006 31.431 8.562-2.376 7.743 16.849-5.473 11.393 5.215-5.456 10.689 8.028-2.287 12.89-.966 4.86 1.321 4.684 2.64 2.396 4.687-2.287 2.046-11.66 6.838-13.528 8.269-1.914 1.758-3.08 2.947-2.42 3.036 1.935.593 13.925-6.202 15.375-7.015 13.639-6.575 12.492 7.041.658 10.162-12.121 2.748-22.613 8.399-24.592 8.134-1.979-.264 1.122 4.179-2.267 4.399-3.717.176 9.963 8.383 19.025 5.899 9.393-2.44 8.994 5.567 1.935 5.632-5.036 0-18.895-1.85-20.017 9.082.505 3.762-2.223 9.106-8.624 14.297-6.402 5.189 7.411 12.407 24.26 11.97 16.849-.438 25.843 20.24-4.446 18.211-28.309-1.765-23.097 12.027-6.425 17.947 17.095 5.302 9.831 29.518-2.264 14.472v-.002zM62.851 59.963c4.53 1.277-3.122-16.872-7.365-22.81C45.238 23.362 39.612-4.926 25.6 1.936 11.256 8.748 57.991 58.642 62.851 59.964z" fill="#FFC61A"/></svg>