<svg width="103" height="112" fill="none" xmlns="http://www.w3.org/2000/svg"><path fill-rule="evenodd" clip-rule="evenodd" d="M65.668 108.513c.434-7.835-.632-4.139-1.034-8.182-.074-1.107-2.036-1.176-1.892-2.031.07-.939-4.609-7.744-6.22-7.236-1.601.351-3.27 2.665-2.05 6.297.64 1.936 1.617 2.56 1.054 4.8-.108.385-.117 2.588.667 3.669.784 1.082-.512 3.66-3.018 1.424-2.507-2.235-1.449-2.705-1.258-4.186.263-1.397.533-6.018-.48-7.196-1.157-1.346-4.931 1.752-5.147 2.522-.216.77-2.197 4.083-5.149 1.5-3.024-2.667-3.185 2.592-4.702 1.848s-.856-1.166-.449-2.394c.323-1.156 1.441-2.41-1.362-1.755-2.72.582-3.785 4.278-4.435 4.544-2.43.918-3.613-2.161-.56-5.078 1.441-1.385 5.623-5.712 3.709-6.408-1.987-.78-4.039 3.472-5.194 4.172-1.154.7-2.924.173-3.119-1.416-.278-1.516 3.34-3.603 2.232-4.552-1.024-1.022-8.747 1.229-10.526 2.904-1.85 1.59-3.256 3.53-4.45 1.63-1.194-1.899 5.335-6.048 7.354-7.785 2.02-1.736 2.448-5.322 3.577-6.732 1.213-1.482.156.012.42-.362.35-.446 1.275-1.241 1.852-1.591 2.897-1.906 2.328-4.781-1.44-4.908-3.682-.2-4.515-2.702-8.28-.782-.734.338-1.575 1.06-2.647.665-.915-.384-6.484 1.478-8.47.699C1.904 71.44.472 71.648.998 68.855c.215-.77 2.39-2.494 4.21-1.57.83.456 2.252 1.428 2.914 1.006.66-.422 4.695 1.377 7.87-.034 3.175-1.413 3.175-1.413 3.596-1.775.493-.278 3.67-.667 4.103-1.186.432-.517 1.248-1.95 2.09-2.674.757-.651.722-.182 1.54-.592.818-.41.42-.362.925-.796.505-.434-.977-1.647-.196-2.611 0 0-4.972-.848-4.902-2.809-.076-2.13 8.244.229 7.47-2.032-.785-2.106-7.034-4.78-8.24-5.5-11.923-6.723-.067-13.696 4.32-9.273 4.386 4.422 10.018 12.164 9.066 2.887 0 0 .321-2.178-2.066-4.955s1.606-4.6 2.86-2.46c.628 1.071 3.34 3.715 4.155 2.281.276-.53-2.338-2.38-1.678-3.824.732-1.362 1.599-1.375 2.853.766 1.423 1.996 2.301 1.826 1.803-.965-.036-.554 1.89-.015 1.117-1.253-.771-1.24 1.803-1.989 2.525-2.17.721-.182 1.43-1.23 1.802-1.989.276-.53.864-2.059.755-2.697-.013-.866-.931-3.296-1.064-3.62-1.148-3.55 2.892-5.998 3.353-2.738.486 2.948-.64 6.404-.48 9.484.135 1.348 1.29.648 1.528-.436.132-.698 1.21-3.527 2.922-2.218 1.927 1.562-.932 5.044-.834 5.838 1.47 9.71 3.547-2.171 4.412-3.208.877-1.193.256 1.829 2.194 2.211 3.72.753 3.185-2.592 3.483-4.458.299-1.866 3.014-4.493 5.484-2.811 2.47 1.68.75 3.597 1.415 5.221.508 1.612-.347 1.469-.754 2.697-.408 1.229.946 5.186 2.436 4.197 1.492-.99 4.803-7.348 5.567-3.908.411 1.84-2.919 4.264-3.831 5.926-1.008 1.891 4.52-3.592 5.605-2.33.88.853-.538 2.949-2.883 3.795-2.274.93-3.175 1.412-3.51 2.724-.335 1.313 2.173 4.57 4.145 3.46 1.478-.833 3.015 4.87 4.192 2.834 1.176-2.035 12.952-5.867 15.661-5.27 2.708.598 2.161 4.727-1.436 5.478-3.91.728-6.944.263-10.37 2.915-.746.495-3.74 2.63-4.304 3.845-.563 1.217 1.487 4.282 4.338 4.026 2.696-.269.232 2.142 4.277 2.761.541.12 13.575.475 10.957 3.896-3.135 4.012-4.635-1.137-7.97-1.782-1.083-.239-4.56-.03-7.138-1.325-2.577-1.296-3.626 5.312 1.221 3.633 3.873-1.28 12.68 5.048 5.922 9.102-2.308 1.4 5.407 2.375 1.678 3.825-3.728 1.45 2.505 1.211 3.422 2.618.916 1.407.58 1.696-.443 1.698-1.023.002-4.418-.884-5.2-.943-.867.013-1.42.05-1.276.219.35.577 4.84 1.545 5.382 1.664 4.852 1.39 1.546 4.523-2.09 2.675-3.626-2.005-7.49-2.926-7.924-3.43-.434-.505-.648 1.288-1.54.591-.964-.78.62 4.296 3.426 5.688 2.879 1.476 1.003 3.38-.768 1.83-1.253-1.117-4.291-4.651-6.995-2.18-.709 1.049-2.573 1.773-5.317 1.645-2.744-.128-.908 4.731 3.382 8.36 4.29 3.628 1.941 10.768-5.146 3.545-6.652-6.718-8.415-2.13-5.579 3.041 3.078 5.111-4.1 9.525-3.773 3.098zm-5.393-84.908c.844 1.323 2.966-4.89 3.227-7.31.509-5.704 5.383-13.991.375-15.392-5.08-1.486-4.518 21.295-3.602 22.702z" fill="#FFC61A"/></svg>