<svg width="290" height="274" fill="none" xmlns="http://www.w3.org/2000/svg"><path fill-rule="evenodd" clip-rule="evenodd" d="M81.964 250.454c16.31-16.975 6.657-10.653 13.648-20.637 1.997-2.663-2.331-6.656-.332-8.321 1.996-1.997 4.66-26.629 0-28.626-4.328-2.331-12.65-.332-16.975 10.318-2.332 5.658-1.33 8.988-6.992 12.982-.998.666-5.326 5.658-5.658 9.651-.332 3.994-8.322 7.323-9.652-2.663S58 214.17 61.33 211.175c3.329-2.663 12.981-12.649 12.981-17.309 0-5.326-14.646-5.658-16.643-4.328-1.997 1.331-12.981 4.992-14.646-6.657-1.665-11.982-12.316-.332-14.312-4.991-1.997-4.66.332-4.328 3.661-6.325 2.996-1.997 7.99-2.664.332-6.657-7.322-3.994-16.975 2.331-18.974 1.665-7.323-2.663-3.993-11.983 8.654-12.649 5.99-.332 23.966-1.997 20.97-7.323-2.994-5.659-15.976 0-19.972-.667-3.994-.666-6.991-5.326-4.328-9.32 2.331-3.993 14.647-1.665 13.98-5.99-.332-4.328-22.301-14.312-29.624-13.98-7.323 0-14.312 1.665-13.313-4.992.998-6.657 23.965-3.33 31.955-3.33 7.99 0 15.977-7.323 21.303-8.321 5.659-.999.332.332 1.665 0 1.665-.332 5.326-.332 7.323 0 10.318 1.33 14.646-6.325 6.325-13.98-7.99-7.655-4.992-14.978-17.31-17.973-2.33-.667-5.658-.667-7.322-3.662-1.33-2.663-17.642-9.32-20.637-14.978-3.994-7.99-7.655-10.318-.998-15.644 1.996-1.33 10.318-.999 12.649 4.66.998 2.663 2.331 7.655 4.66 7.989 2.33.332 7.989 12.315 17.973 15.312 9.986 2.996 9.986 2.996 11.651 2.996 1.665.332 9.652 5.658 11.651 5.326 1.997-.332 6.657-1.997 9.987-1.997 2.995 0 1.997.999 4.66 1.665 2.663.666 1.665 0 3.661 0 1.997 0 .999-5.658 4.66-6.325 0 0-9.651-11.651-5.658-15.977 3.993-4.992 18.308 16.643 20.971 9.987 2.331-6.325-6.657-24.633-7.99-28.626-13.98-38.612 26.63-31.29 27.96-12.65 1.33 18.64-.998 47.267 14.978 24.299 0 0 4.992-4.328 4.992-15.313s12.649-7.323 11.317 0c-.667 3.662.332 14.978 4.992 13.313 1.664-.666-.667-9.986 3.661-11.983 4.328-1.665 6.325 0 4.992 7.323-.666 7.323 1.665 8.654 5.99 1.33.999-1.33 4.328 3.662 4.992-.666.667-4.328 7.99-.998 9.987 0 1.996.999 5.658 0 7.989-.998 1.665-.667 5.99-2.995 6.991-4.66 1.665-1.997 4.328-9.32 4.66-10.318 4.328-10.318 18.308-7.99 12.982.332-4.66 7.655-13.981 13.313-19.639 20.636-2.331 3.33 1.665 3.994 4.328 1.997 1.665-1.33 9.652-5.658 10.985.667 1.33 7.323-11.983 9.651-13.313 11.651-15.645 24.964 12.315 1.997 16.31 1.33 4.328-.998-2.995 4.66.667 9.32 6.991 8.988 12.315.332 16.643-3.33 4.327-3.66 15.644-4.327 17.973 4.329 2.331 8.654-5.327 9.651-6.992 14.646-1.996 4.66-3.661 2.663-6.991 4.66-3.329 1.997-7.989 13.648-2.663 14.312 5.326.666 25.297-7.323 20.305 1.997-2.664 4.992-14.979 3.993-20.305 5.99-5.99 2.331 17.309.666 17.309 5.658.332 3.662-6.991 5.659-13.98 2.995-6.991-2.331-9.986-2.995-13.313-.666-3.329 2.331-3.993 14.646 2.663 15.977 4.992.998-2.663 16.975 3.994 14.646 6.656-2.331 40.941 11.983 45.935 18.64 4.992 6.656-4.328 14.978-13.98 9.651-10.318-5.99-16.311-12.981-29.292-13.647-2.663-.332-13.648-1.331-17.31.332-3.661 1.664-4.991 12.649 1.997 17.641 6.657 4.66-3.661 5.326 4.328 14.646.999 1.331 29.956 27.628 17.309 30.291-14.978 2.995-8.321-11.651-14.646-19.638-1.997-2.663-10.318-8.988-13.648-16.975-3.329-7.989-18.639 4.992-4.328 10.653 11.317 4.66 18.975 36.281-4.328 32.287-7.989-1.33 7.656 15.977-3.661 11.983-11.317-3.994 3.329 7.655 2.663 12.649-.666 4.992-1.997 4.992-4.328 2.995-2.331-1.996-8.321-10.652-9.986-12.315-1.997-1.665-3.33-2.663-3.33-1.997-.332 1.997 7.989 12.982 8.988 14.312 8.322 12.649-5.326 13.313-9.986 1.997-4.328-11.651-11.317-21.303-11.317-23.3 0-1.996-3.994 1.665-4.66-1.664-.666-3.662-6.991 10.984-3.329 19.638 3.661 8.987-4.328 9.651-5.327 2.663-.666-4.992-.666-18.974-11.651-18.64-3.662.999-9.32-.998-15.313-6.656-5.99-5.659-11.316 8.988-8.653 25.631 2.662 16.642-16.643 28.294-18.64-1.997-1.997-28.295-14.978-21.303-18.64-3.994-2.992 17.646-27.957 13.65-14.643-.33zm153.781-203.71c-.667 4.66 16.311-5.326 21.635-10.318 12.315-11.983 39.61-21.303 30.954-34.284-8.651-13.316-51.923 39.61-52.59 44.602h.001z" fill="#FFC61A"/></svg>