<svg width="80" height="80" fill="none" xmlns="http://www.w3.org/2000/svg"><path d="M63.236 34.938c-.25-1.08-1.162-1.328-1.162-1.328l-3.983.415-3.652-8.465c-.331-.996-1.493-2.573-3.9-2.822h-4.481l-1.577-2.655a.87.87 0 00-.747-.415h-7.552a.871.871 0 00-.747.415l-1.577 2.655h-4.647c-2.406.25-3.568 1.826-3.9 2.822l-3.568 8.465-3.818-.415s-.913.249-1.162 1.328c-.249 1.079-.498 2.904 1.909 3.568l1.328.166c-1.577 3.07-3.32 8.548 1.161 13.195.083.083 1.245.995 1.826 1.162v2.655c0 .996.83 1.826 1.826 1.826h2.406c.996 0 1.826-.83 1.826-1.825v-2.573h21.577v2.49c0 .995.83 1.826 1.825 1.826h2.49c.996 0 1.826-.83 1.826-1.826v-2.656c.664-.166 1.245-.581 1.743-1.162 4.564-4.564 3.154-10.042 1.577-13.195l1.162-.082c2.571-.582 2.24-2.407 1.99-3.57zm-34.938-8.216l.083-.083c.083-.083.332-.664 1.244-.747h20.83c.913.083 1.245.664 1.245.747l3.568 8.381-30.373-.082 3.403-8.216zM26.805 45.56c-1.494 0-2.656-1.245-2.656-2.656 0-1.494 1.244-2.656 2.656-2.656 1.493 0 2.655 1.245 2.655 2.656s-1.245 2.656-2.655 2.656zm26.058 0c-1.494 0-2.656-1.245-2.656-2.656 0-1.494 1.244-2.656 2.656-2.656 1.493 0 2.656 1.245 2.656 2.656.082 1.411-1.163 2.656-2.656 2.656z" fill="#fff"/><path d="M64.149 57.843l2.905 1.66.082-.167c4.067-5.643 6.225-12.365 6.225-19.42.082-9.045-3.32-17.51-9.627-23.816-6.307-6.39-14.69-9.959-23.652-9.959-18.506 0-33.61 15.104-33.61 33.61S21.493 73.278 40 73.278c3.237 0 6.307-.415 9.212-1.328l.166-.083-.664-3.319-.249.083c-2.821.83-5.726 1.328-8.63 1.328-16.598 0-30.125-13.527-30.125-30.125C9.71 23.237 23.236 9.71 39.834 9.71c16.597 0 30.124 13.527 30.124 30.124 0 6.39-1.992 12.531-5.809 17.843v.166z" fill="#fff"/><path d="M68.381 11.785C60.83 4.149 50.705 0 40.082 0c-3.734 0-7.303.498-10.705 1.493l-.166.083.581 3.07.25-.082c3.319-.913 6.721-1.41 10.041-1.41 20.332 0 36.93 16.514 36.93 36.929 0 20.416-16.598 36.846-36.93 36.846-20.415-.083-36.93-16.68-36.93-37.012 0-7.718 2.324-15.021 6.806-21.328l.165-.166-2.738-1.577-.083.166C2.49 23.734 0 31.7 0 40.082 0 62.075 17.925 80 39.917 80 61.992 80 80 62.075 80 40.084c0-10.706-4.066-20.747-11.618-28.3v.002z" fill="#fff"/></svg>