<svg width="30" height="30" fill="none" xmlns="http://www.w3.org/2000/svg"><circle cx="15" cy="15" r="14" stroke="#FDFDFD" stroke-width="2"/><path d="M24.507 20.464l-2.385-2.382a1.669 1.669 0 00-2.362 0l-1.658 1.66a1.868 1.868 0 01-2.42.204 24.386 24.386 0 01-5.634-5.633 1.867 1.867 0 01.204-2.416l1.665-1.66.007-.005a1.667 1.667 0 00-.007-2.358L9.53 5.49l-.005-.005a1.67 1.67 0 00-2.358.005c-1.878 1.88-2.595 4.88-1.915 8.02a12.917 12.917 0 003.804 6.311c.319.312.282.253 1.132 1.132 2.468 2.442 5.09 4.043 8.59 4.043a7.767 7.767 0 005.729-2.166l.01-.008a1.668 1.668 0 00-.01-2.357z" fill="#FF0404"/></svg>