<svg width="96" height="50" fill="none" xmlns="http://www.w3.org/2000/svg"><path d="M16.2 0a1.641 1.641 0 00-1.646 1.635v8.748H9.053a1.645 1.645 0 00-1.648 1.648 1.642 1.642 0 001.648 1.635h5.5v7.183H1.638a1.642 1.642 0 00-1.161 2.802c.308.309.725.483 1.161.484h12.915v18.172a1.64 1.64 0 001.647 1.647h8.874C25.99 47.418 29.118 50 32.834 50c3.717 0 6.851-2.583 7.77-6.045h29.95C71.47 47.417 74.598 50 78.314 50c3.717 0 6.855-2.583 7.774-6.045h7.456a1.64 1.64 0 001.648-1.648V27.064a1.644 1.644 0 00-.17-.714l-7.428-15.24a1.641 1.641 0 00-1.478-.922H64.733V1.634A1.643 1.643 0 0063.085 0H16.201zm1.635 3.282h43.616v37.39H40.794c-.572-3.91-3.924-6.955-7.96-6.955-4.034 0-7.375 3.046-7.946 6.956h-7.052V24.136h15.98a1.642 1.642 0 001.634-1.648 1.641 1.641 0 00-1.634-1.638h-15.98v-7.184h15.98a1.641 1.641 0 000-3.282h-15.98V3.282zm46.897 10.19h20.355L90.92 25.43H64.733l-.001-11.957zm0 15.24h27.177v11.96h-5.635c-.573-3.91-3.925-6.956-7.96-6.956s-7.376 3.045-7.946 6.956h-5.635l-.001-11.96zm-32.02 8.29h.121c2.634 0 4.76 2.138 4.76 4.856 0 2.719-2.127 4.86-4.76 4.86s-4.75-2.142-4.75-4.86c0-2.676 2.052-4.79 4.629-4.856zm45.48 0h.121c2.634 0 4.764 2.138 4.764 4.856 0 2.719-2.13 4.86-4.764 4.86-2.633 0-4.747-2.142-4.747-4.86 0-2.676 2.05-4.79 4.626-4.856z" fill="#000"/></svg>