<svg width="50" height="60" fill="none" xmlns="http://www.w3.org/2000/svg"><path d="M44.462 37.59a119.175 119.175 0 00-13.237-5.134c3.982-3.608 6.126-10.33 6.66-15.35.691-1.706.896-4.06.557-4.72v.001A5.684 5.684 0 0041 8c0-4.486-7.028-8-16-8C16.027 0 9 3.514 9 8a5.684 5.684 0 002.557 4.387c-.463.464.078 4.025.556 4.72.536 5.019 2.68 11.743 6.662 15.35A119.026 119.026 0 005.537 37.59C0 40.48 0 52.989 0 59a1 1 0 001 1h48a1 1 0 001-1c0-6.01 0-18.519-5.537-21.41zM25 2c8.25 0 14 3.162 14 6s-5.75 6-14 6-14-3.162-14-6 5.75-6 14-6zm0 14c3.999.1 7.966-.736 11.586-2.44A6.343 6.343 0 0130.389 20H19.611a6.342 6.342 0 01-6.197-6.44A25.7 25.7 0 0025.001 16H25zm-10.315 4.285A7.981 7.981 0 0019.61 22h10.777a7.98 7.98 0 004.925-1.714C33.948 26.168 30.561 33 25 33c-5.562 0-8.949-6.832-10.315-12.714zM25 35a8.638 8.638 0 004.225-1.1c.776.257 2.333.778 4.195 1.43l-4.709 9.791-1.151-2.315A.982.982 0 0028 42v-4a1 1 0 00-1-1h-4a1 1 0 00-1 1v4a.98.98 0 00.44.806l-1.268 2.55-4.995-9.885c2.066-.728 3.81-1.31 4.6-1.57A8.634 8.634 0 0025 35zm1 6h-2v-2h2v2zm-1.422 2h.843l2.192 4.405-2.636 5.48-2.678-5.298L24.58 43zM2.001 58c.017-5.3.285-16.455 4.462-18.636a75 75 0 017.817-3.212l9.828 19.444a1 1 0 00.892.55h.01c.38-.005.726-.224.891-.567l9.415-19.574a78.388 78.388 0 018.221 3.36C47.715 41.544 47.982 52.7 48 57.998H2.001z" fill="#000"/><path d="M41 43h-5a1 1 0 000 2h5a1 1 0 000-2z" fill="#000"/></svg>