<svg width="60" height="53" fill="none" xmlns="http://www.w3.org/2000/svg"><path d="M23.637 3.635h1.818v1.818h-1.818V3.635zm3.636 0h1.818v1.818h-1.818V3.635zm-1.818 1.819h1.817v1.818h-1.817V5.454zM30 7.272h.909V5.455H29.09v1.817H30zM22.728 34.54a.858.858 0 00-.909.909v.91a.909.909 0 001.818 0v-.91a.858.858 0 00-.909-.91zm3.635-.91a.858.858 0 00-.909.91v1.818a.91.91 0 001.818 0v-1.819a.86.86 0 00-.909-.909z" fill="#000"/><path d="M59.904 39.084c-.182-3.908-1.182-11.543-4.454-13.633h.182c2.727 0 2.818-5.454-.727-5.454H52.36l-.909-3.09a9.968 9.968 0 00-7.726-7c-1.364-.272-2.636-.454-3.818-.636V4.545A4.5 4.5 0 0035.362 0H24.456a4.5 4.5 0 00-4.545 4.545v4.727c-1.182.181-2.454.363-3.818.636a9.966 9.966 0 00-7.726 6.999l-.909 3.09H5.095c-3.545 0-3.454 5.454-.728 5.454h.182C1.277 27.541.278 35.176.096 39.085c-.078.602-.109 1.21-.091 1.818v9.09a2.677 2.677 0 002.726 2.726h4.545a2.676 2.676 0 002.727-2.727v-3.636h39.994v3.636a2.679 2.679 0 002.727 2.727h4.545a2.675 2.675 0 002.726-2.727v-9.089a11.558 11.558 0 00-.09-1.818zm-1.818-.909H45.635l.182-1.364c.182-1.273 1.364-2.272 2.726-2.272h9.09c.183 1.182.364 2.455.455 3.636zm-3.18-16.361c.636 0 1 .545.909 1.182l-.182.636h-2.182l-.545-1.818h2zM24.546 1.817h10.907a2.677 2.677 0 012.727 2.726v4.545A79.297 79.297 0 0030 8.633a79.3 79.3 0 00-8.18.455V4.543a2.676 2.676 0 012.726-2.726zM10.185 17.45a8.066 8.066 0 016.363-5.726c1.636-.273 3.09-.546 4.453-.728a74.518 74.518 0 0117.998 0c1.363.182 2.817.364 4.453.728 3 .545 5.454 2.817 6.363 5.726l2 6.726c-.546 0-1.273-.09-2.091-.09l-1.636-6.09a6.313 6.313 0 00-4.908-4.455 70.997 70.997 0 00-13.09-1.271c-4.393.014-8.776.44-13.09 1.272a6.309 6.309 0 00-4.908 4.455l-1.636 6.09c-.818 0-1.545.09-2.09.09l1.818-6.726zm37.54 6.545C42.18 23.722 36.09 23.63 30 23.63c-6.09 0-12.18.091-17.725.273l1.454-5.544a4.402 4.402 0 013.545-3.182 67.24 67.24 0 0112.816-1.182c4.3-.013 8.591.383 12.816 1.182 1.636.273 3 1.545 3.545 3.181l1.273 5.636zM4.367 23.63l-.181-.636c-.182-.546.273-1.182.909-1.182h2l-.546 1.818H4.367zM2.46 34.538h9.09c1.363 0 2.454 1 2.726 2.273l.182 1.364H1.914c.093-1.224.275-2.44.546-3.637zm5.726 15.453a.857.857 0 01-.909.909H2.732a.858.858 0 01-.91-.91v-5.18a6.488 6.488 0 004.273 1.544h2.09v3.636zm49.992 0a.86.86 0 01-.909.909h-4.544a.86.86 0 01-.91-.91v-3.636h2.091a6.664 6.664 0 004.273-1.544v5.18zm-4.272-5.454H6.095c-2.364 0-4.272-1.636-4.272-3.545v-1h12.543a1.822 1.822 0 001.818-1.818v-.273l-.182-1.364c-.363-2.181-2.272-3.817-4.453-3.817H2.822c1.182-5.545 2.818-6.726 4.545-6.726 6.454-.364 14.453-.546 22.633-.546s16.18.182 22.632.455c1.727 0 3.363 1.272 4.545 6.726H48.45c-2.181 0-4.09 1.636-4.454 3.818l-.182 1.364v.273a1.825 1.825 0 001.818 1.817h12.544v1c0 2-1.91 3.636-4.273 3.636h.001z" fill="#000"/><path d="M39.09 30.904A31.022 31.022 0 0030 29.54a30.595 30.595 0 00-9.09 1.364c-2.181.637-3.454 2.727-3.181 5l.454 3.272c.091.454.455.818.91.818h21.814c.455 0 .819-.364.91-.819l.454-3.272c.364-2.18-1-4.272-3.181-4.999zm1.363 4.727l-.364 2.545H19.912l-.364-2.546v.001a2.72 2.72 0 011.909-3c2.818-.909 5.726-1.272 8.544-1.272 2.894.015 5.772.443 8.545 1.272 1.363.455 2.09 1.727 1.908 3zM34.545 3.635h1.817v1.818h-1.817V3.635zm-3.637 0h1.818v1.818h-1.818V3.635zm1.818 1.819h1.818v1.818h-1.818V5.454z" fill="#000"/><path d="M37.27 34.54a.859.859 0 00-.909.909v.91a.91.91 0 001.819 0v-.91a.86.86 0 00-.91-.91zm-3.634-.91a.859.859 0 00-.91.91v1.818a.909.909 0 001.818 0v-1.819a.858.858 0 00-.908-.909zM30 32.722a.86.86 0 00-.91.91v2.726a.909.909 0 001.818 0v-2.727a.858.858 0 00-.908-.91z" fill="#000"/></svg>