<svg width="77" height="50" fill="none" xmlns="http://www.w3.org/2000/svg"><path d="M57.595 43h-3.27c-.413 0-.765-.213-.994-.519v1.437c0 .962-.397 1.833-1.054 2.475a3.573 3.573 0 01-2.506 1.009H39.41a3.631 3.631 0 01-2.492-1.009 3.39 3.39 0 01-1.054-2.475v-1.65c0-.383.061-.765.183-1.116h-.794c.153.58.229 1.192.229 1.803a7.01 7.01 0 01-2.063 4.982A7.02 7.02 0 0128.438 50a6.95 6.95 0 01-4.966-2.063 7.077 7.077 0 01-1.834-3.225 7.158 7.158 0 01-1.834 3.225A7.01 7.01 0 0114.838 50a6.95 6.95 0 01-4.966-2.063 7.02 7.02 0 01-2.063-4.982c0-.627.076-1.238.229-1.803H1.177A1.177 1.177 0 010 39.975V25.122c0-.657.535-1.176 1.177-1.176h1.299V1.192A1.19 1.19 0 013.652 0H54.31a1.18 1.18 0 011.177 1.192v6.082l10.926.046c.183 0 .367.045.52.122l6.754 3.163c.351.122.611.413.733.764.474 1.238 1.009 3.255 1.391 5.288.351 1.803.58 3.667.55 5.027V38.57a4.436 4.436 0 01-1.299 3.132 4.464 4.464 0 01-3.132 1.3h-.29a7.03 7.03 0 01-2.064 4.935A7.011 7.011 0 0164.61 50a7.01 7.01 0 01-4.982-2.063 7.135 7.135 0 01-2.032-4.936zM21.669 2.369v10.773c0 .657-.535 1.177-1.177 1.177-.397 0-.733-.184-.947-.474l-1.223-1.39-1.024 1.39a1.19 1.19 0 01-1.65.245 1.362 1.362 0 01-.29-.306l-.963-1.314-1.314 1.467a1.168 1.168 0 01-1.666.091 1.197 1.197 0 01-.397-.886h-.03V2.368H4.843v21.547h22.968V2.368h-6.143zm-8.313 0v7.687l.23-.26a.956.956 0 01.182-.168 1.189 1.189 0 011.65.26l.918 1.252.947-1.268c.046-.061.107-.122.168-.183a1.183 1.183 0 011.666.107l.183.214V2.353h-5.944v.015zm15.632 23.93H2.353v12.485h6.8c.214-.275.444-.55.688-.795a7.011 7.011 0 014.967-2.063c1.94 0 3.698.78 4.966 2.063.244.245.474.504.688.795h2.307c.214-.275.443-.55.688-.795a7.01 7.01 0 014.966-2.063c1.94 0 3.698.78 4.982 2.063.244.245.474.504.688.795h19.04V26.298H28.988zm9.704-23.93v7.656l.183-.214a1.183 1.183 0 011.666-.107c.061.061.122.122.168.183l.947 1.269.917-1.253a1.189 1.189 0 011.65-.26.962.962 0 01.184.168l.23.26V2.383h-5.945v-.015zm8.313 0v10.773h-.016c0 .321-.137.642-.397.886-.489.428-1.238.398-1.665-.091l-1.315-1.467-.962 1.314a1.188 1.188 0 01-1.94.061l-1.025-1.39-1.222 1.39a1.18 1.18 0 01-2.124-.703V2.368h-6.143v21.547h22.967V2.368h-6.158zm-32.182 37.04c.978 0 1.865.398 2.506 1.04a3.534 3.534 0 011.04 2.506c0 .978-.398 1.864-1.04 2.521a3.535 3.535 0 01-2.506 1.04 3.597 3.597 0 01-2.521-1.04 3.544 3.544 0 01-1.04-2.52c0-.979.398-1.865 1.04-2.507a3.544 3.544 0 012.521-1.04zm.84 2.72a1.176 1.176 0 00-.84-.35c-.336 0-.626.137-.84.35a1.177 1.177 0 000 1.68c.214.216.504.353.84.353a1.204 1.204 0 001.192-1.192c-.015-.336-.137-.642-.351-.84zm5.976-.931l.015-.061h-.03l.015.06zm-3.53-1.529a4.68 4.68 0 00-3.301-1.375c-1.284 0-2.46.52-3.3 1.376a4.667 4.667 0 00-1.36 3.3c0 1.284.519 2.46 1.36 3.301.84.84 2.016 1.36 3.3 1.36 1.284 0 2.445-.52 3.3-1.36a4.617 4.617 0 001.376-3.3 4.59 4.59 0 00-1.375-3.301zm10.33-.26c.978 0 1.864.398 2.521 1.04A3.534 3.534 0 0132 42.954c0 .978-.398 1.864-1.04 2.521a3.482 3.482 0 01-2.521 1.04 3.534 3.534 0 01-2.506-1.04 3.543 3.543 0 01-1.04-2.521c0-.978.398-1.864 1.04-2.506a3.534 3.534 0 012.506-1.04zm.84 2.72a1.177 1.177 0 00-.84-.35 1.204 1.204 0 00-1.192 1.191c0 .337.137.627.351.84a1.176 1.176 0 001.68 0c.215-.213.353-.504.353-.84a1.15 1.15 0 00-.352-.84zm2.46-2.46a4.68 4.68 0 00-3.3-1.375c-1.284 0-2.445.52-3.301 1.376a4.667 4.667 0 00-1.36 3.3c0 1.284.52 2.46 1.36 3.301.84.84 2.017 1.36 3.3 1.36 1.284 0 2.461-.52 3.302-1.36a4.667 4.667 0 001.36-3.3 4.64 4.64 0 00-1.36-3.301zm18.078 1.483H39.411a1.23 1.23 0 00-.84.336 1.103 1.103 0 00-.337.764v1.65c0 .306.137.581.336.78a1.2 1.2 0 00.856.336h10.376c.336 0 .642-.138.856-.336a1.05 1.05 0 00.336-.78v-1.65c0-.306-.138-.565-.336-.764a1.291 1.291 0 00-.841-.336zm8.771-30.624h9.398l-1.818-.856-10.651-.045v30.99h2.475a7.015 7.015 0 011.666-2.644 7.02 7.02 0 014.982-2.063c1.94 0 3.698.779 4.966 2.063a7.015 7.015 0 011.666 2.643h.687c.566 0 1.085-.229 1.452-.611.275-.275.474-.627.566-1.024h-1.972a1.18 1.18 0 01-1.176-1.192v-4.737a1.19 1.19 0 011.176-1.192h2.017v-9H58.588a1.18 1.18 0 01-1.176-1.192v-9.994c0-.611.535-1.146 1.176-1.146zm13.738 2.369H59.78v7.625h13.998l-1.452-7.625zM64.64 39.409a3.53 3.53 0 012.506 1.04 3.534 3.534 0 011.039 2.505c0 .978-.397 1.865-1.04 2.522a3.535 3.535 0 01-2.505 1.039 3.597 3.597 0 01-2.522-1.04c-.657-.641-1.039-1.528-1.039-2.52a3.53 3.53 0 011.04-2.507 3.544 3.544 0 012.52-1.039zm.825 2.72a1.177 1.177 0 00-1.681 0 1.177 1.177 0 00-.352.84c0 .337.138.627.352.841a1.177 1.177 0 001.68 0c.215-.214.352-.504.352-.84a1.15 1.15 0 00-.351-.84zm8.557-7.87h-.84v2.384h.84V34.26zm-6.097 5.41a4.68 4.68 0 00-3.3-1.375c-1.284 0-2.461.52-3.301 1.375a4.667 4.667 0 00-1.36 3.3c0 1.284.52 2.46 1.36 3.301.84.84 2.017 1.36 3.3 1.36 1.284 0 2.445-.52 3.301-1.36a4.667 4.667 0 001.36-3.3 4.517 4.517 0 00-1.36-3.301z" fill="#000"/></svg>