<svg width="139" height="139" fill="none" xmlns="http://www.w3.org/2000/svg"><path d="M69.5 0A69.498 69.498 0 000 69.5 69.496 69.496 0 0069.5 139 69.496 69.496 0 00139 69.5 69.496 69.496 0 0069.5 0zm0 126.362a56.866 56.866 0 01-40.208-16.654 56.869 56.869 0 010-80.417 56.867 56.867 0 0180.416 0 56.867 56.867 0 010 80.417A56.866 56.866 0 0169.5 126.362z" fill="#048E01"/><path d="M90.285 52.375l-20.786 20.85L55.03 58.693a6.346 6.346 0 00-8.973 8.973L65.012 86.62a6.318 6.318 0 008.973 0l25.272-25.273a6.343 6.343 0 10-8.972-8.972z" fill="#048E01"/></svg>